# xmcd
#
# Track frame offsets:
#	150
#	21156
#	25377
#	27927
#	30417
#	32907
#	35457
#	38007
#	40497
#	43047
#	45477
#	49767
#	52317
#	54927
#	57717
#	60327
#	73119
#	86284
#	99027
#	112016
#	120652
#	128975
#	136958
#
# Disc length: 1933 seconds
#
# Revision: 1
# Processed by: cddbd v1.5.2PL0 Copyright (c) Steve Scherf et al.
# Submitted via: audiograbber 1.82.02
#
DISCID=3c078b17
DTITLE=Nick Bryant - You Can Play Blues Box Slide Guitar
DYEAR=2015
DGENRE=Blues
TTITLE0=Blues Box Guitar - Demo Track
TTITLE1=Tuning Track - G,D,G
TTITLE2=Excercise 1- Two-Note riff
TTITLE3=Excercise 1 - Two-Note riff Alternate
TTITLE4=Excercise 2 - Two-Chord riff
TTITLE5=Excercise 2 - Two-Chord riff Alternate
TTITLE6=Excercise 3 - Three-Note riff
TTITLE7=Excercise 3 - Three-Note riff Alternate
TTITLE8=Excercise 4 - Four-Note riff
TTITLE9=Excercise 5 - VIbrato
TTITLE10=Excercise 5 - VIbrato Alternate
TTITLE11=Excercise 6 - Hammer-On
TTITLE12=Excercise 6 - Hammer-On Intermediate
TTITLE13=Excercise 6 - Hammer-On Advanced
TTITLE14=Excercise 7 - The Blues Scale
TTITLE15=12 Bar Blues Basic - Example
TTITLE16=12 Bar Blues Basic - Play-Along
TTITLE17=12 Bar Blues Intermediate - Example
TTITLE18=12 Bar Blues Intermediate - Play-Along
TTITLE19=8 Bar Blues Basic - Example
TTITLE20=8 Bar Blues Basic - Play-Along
TTITLE21=8 Bar Blues Intermediate - Example
TTITLE22=8 Bar Blues Intermediate - Play-Along
EXTD=lesson disc for blues box slide guitar - hinkler books
EXTT0=
EXTT1=
EXTT2=
EXTT3=
EXTT4=
EXTT5=
EXTT6=
EXTT7=
EXTT8=
EXTT9=
EXTT10=
EXTT11=
EXTT12=
EXTT13=
EXTT14=
EXTT15=
EXTT16=
EXTT17=
EXTT18=
EXTT19=
EXTT20=
EXTT21=
EXTT22=
PLAYORDER=
